# xmcd
#
# Track frame offsets:
#	150
#	16139
#	37485
#	54247
#	70260
#	85449
#	101095
#	114704
#	131316
#	146462
#	162051
#	179232
#	196286
#	215553
#	230853
#	247065
#	263848
#	277571
#
# Disc length: 3913
#
# Revision: 2
# Processed by: cddbd v1.5.1PL0 Copyright (c) Steve Scherf et al.
# Submitted via: EasyCDDAExtractor 6.0.0.1
# Normalized: r1:DSETVAR1
#
DISCID=0d0f4712
DTITLE=Various Artist - Energy 2
DYEAR=2004
DGENRE=Dance
TTITLE0=Royal Gigilos - California Dreamin' (Tek-House Single)
TTITLE1=Dj Aligator - Music Is My Language
TTITLE2=Dj Monta ft.Steph - Travel Girl
TTITLE3=Bosson - A Little More Time (NeoMaster Energy Radio Edit)
TTITLE4=Da Bazz - Dangerous
TTITLE5=In-Grid - Milord
TTITLE6=Tarkan - Du-Du (NeoMaster Dance Mix)
TTITLE7=Safri Duo - All The People In The World
TTITLE8=Dr.Kucho! ft. Jodie - Belmondo Rulez (Bob Sinclar Radio Edit)
TTITLE9=Groove Coverage - Got Is A Girl
TTITLE10=Colonia - A Little Bit Of Uh La La
TTITLE11=Mixtery ft. Eddy Wata - Bring Me To Life
TTITLE12=Dj Ross - Floating In Love (Tonite! Radio Cut)
TTITLE13=Erika - Right Or Wrong
TTITLE14=Staccato - Can't You See (Get Up)(Club Mix)
TTITLE15=Molella - Whistle's Party
TTITLE16=Dj Bobo - Chihuahua
TTITLE17=Eddy Wata - In Your Mind (Radio Edit)
EXTD=
EXTT0=
EXTT1=
EXTT2=
EXTT3=
EXTT4=
EXTT5=
EXTT6=
EXTT7=
EXTT8=
EXTT9=
EXTT10=
EXTT11=
EXTT12=
EXTT13=
EXTT14=
EXTT15=
EXTT16=
EXTT17=
PLAYORDER=
